<?xml version="1.0" encoding="utf-8"?>
<!-- Generator: Adobe Illustrator 24.1.0, SVG Export Plug-In . SVG Version: 6.00 Build 0)  -->
<svg version="1.1" id="Layer_1" xmlns="http://www.w3.org/2000/svg" xmlns:xlink="http://www.w3.org/1999/xlink" x="0px" y="0px"
	 viewBox="0 0 820 820" style="enable-background:new 0 0 820 820;" xml:space="preserve">
<style type="text/css">
	.st0{fill:#FFFFFF;}
</style>
<path class="st0" d="M-9.5-9.5v839h839v-839H-9.5z M753.9,467.8c0,4.1-5.9-1.5-5.9,5.7c0,7.1,0,7.6-5,12.6c-4.3,4.2,3,8-5.3,8
	c-3.4,0-5.9,4.6-8.5,6.8c-4.6,3.9-8,2.5-11.8,5c-1,0.6,0.9,5,0,5.9c-1.8,1.8-5.9-2.3-5.9,1.5c0,8.6-15.7,12.2-23,15.8
	c-2.3,1.1,0.8,6.5-2.5,8.6c-5,3.1-9.9,6.2-14.9,9.3c-2.3,1.4-7.9,0.4-7.9,2.4c0,4.7,2,9.9-2.8,11.5c-10.8,3.6-18.8,4.9-27.8,10.8
	c-9,5.9-14.5,3.4-23.5,5.9c-8.3,2.3-14.4,10.7-21.9,14.5c-5.5,2.8-8.7,2.5-8.7,8.7c0,2.2-6.3,1.8-8.9,3.1
	c-10.2,5.1-18.8,2.9-27.5,10.2c0.3-1.9-0.3-4,0-5.9c-9,12.7-23.6-5.5-35.3-5.9c-0.8,0-18.8,5.8-19.4,6.5
	c-6.5,6.6-11.9,11.6-19.8,16.3c-5.3,3.2-6,11.5-11,14c-3.4,1.7-7.2,4.6-10.9,5.5c-3.6,0.9-8.3-1.2-11.8,0c-3.1,1.1-3.8,5.9-7.4,5.9
	c-4.1,0-4.2-0.2-6.9,2.6c-7,7-14,13.9-20.9,20.9c-3.5,3.5-10.5-1.3-13.9,2.1c-3.7,3.7-4.2,5-9.3,5c-2.7,0-8.6-1.5-8.6,1.5
	c0,2.2,1,8.4,0,10.2c-0.6,1-5.6-0.4-7.4,2.2c-2.9,4.4-5.9,8.8-8.8,13.2c-1.7,2.6-6.8,1.2-7.4,2.2c-2.6,4.7,0,18.8,0,23.9
	c0,6.1-6.8,13.4-10.8,17.5c-2.4,2.4-13.9,12.6-13.9,15.1c0,2.7,1.6,10.5-1.5,10.5c-2.2,0-3.6,0.2-4.3,1c0.1,1.6,0.2,3.4,0,4.9
	c-0.7-2.6-0.7-4.1,0-4.9c0-0.3,0-0.7,0-1c-1.7,2.2-4.2,3.7-5.9,5.9c0-0.7,0-1.4-0.1-2.1c-0.4,7.6-2.2,10.3-8.7,16.8
	c-2.6,2.6-8.8,2.5-8.8,4.8c0,9.2-5.9,1.2-5.9,9.6c0,2.9-8.5,1.5-11.4,1.5c-2.8,0-1.5-8.5-1.5-11.1c0-5.5,1.7-7.7-4.4-7.7
	c-3.6,0-7.7-6.2-10.4-8.8c-4.7-4.7-18.4-5.9-25.2-8.1c-4.6-1.4,0-5.1-3-7.1c-5.5-3.6-11-7.3-16.4-10.9c-4.8-3.2,3.8-7.5-4.7-7.5
	c-4.5,0-9,0-13.5,0c-14.2,0-14.1-2.6-24.7-11.8c-5.3-4.6-5.9,3.7-5.9-7.6c0-5.7-3-7.1-7.1-11.3c-7.6-7.6-7.9-18.5-10.4-28.7
	c-1.6-6.8-0.1-15.6-0.1-22.6c0-5.7-1.9-8.6,4.3-8.6c3.2,0,1.5-11.9,1.5-14.9c0-4.5,5.4-5.1,5.9-8.6c0.5-3.6-6.4-8.2-5.9-11.8
	c0.8-6.2,8.8-4.1,2.9-10c-4.6-4.5-1.5-8.6,0-14.7c1.1-4.2,2.9-8.9,2.9-13.3c0-5.6,5.5-7,5.9-11.4c0.6-5.9-9.3-2.4-2.9-8.8
	c3.7-3.8,3.8-7.1,1.4-11.9c-3.7-7.4-3.6-13.9-9.3-19.5c-8.3-8.2-5.8-9.9-0.9-19.7c-5.2,1.4-5.9,0-5.9-4.4c0-4.2-7.1-4.6-7.1-8.6
	c0-11.2-1.7-16.2,7.1-23.5c-5.5,1.5-10-1.3-12.9-5.9c0,0.3,0,0.7,0,1c0.7,0.8,0.8,2.3,0,4.9c-0.3-1.6-0.1-3.3,0-4.9
	c-0.7-0.8-2.2-1-4.3-1c-2.9,0-1.5-4.9-1.5-7.4c0-5.1-1.3-5.6-4.9-9.3c-2-2-0.2-5.2-1.4-7.8c-4.3-9.4-5.5-13.8-5.5-24
	c0-7.5,1.1-12.6-5.9-17.3c1.9,0.3,4-0.3,5.9,0c-3.9-4.3-7.8-8.6-11.8-12.9c1.8,0.4,4-0.3,5.9,0c-1.8-3.6-3.6-7.3-5.4-10.9
	c-0.8-1.6-7.9-1.2-10.4-3.8c-5.9-5.9-15.6,1.6-14.7-8.8c0.2-2.5,7.5-4.2,4.9-6.8c-3.3-3.3-6.6-6.6-9.9-9.9
	c-5.5-5.4,2.2-13.6-6.8-19.7c0-3.4,0-6.8,0-10.2c0-3.7,4.9-4.3,5.9-7.4c3.2-9.6-1.6-10.8,5.9-18.8c4.7-5.1,9.8-9.8,14.7-14.7
	c1.6-1.6,2.8-8.8,2.9-8.8c2.2-1.5,10.1,0,12.9,0c-2.2-1.6-3.7-4.1-5.9-5.9c7.5-4.5,14.8-8.6,22.6-12.5c2.8-1.4,4.4,5.7,6.8,5.4
	c4.3-0.5,5.9-7.1,5.9-10.2c0-3.4,4.9-5.1,7.1-7.4c1-1.1-0.9-4.7,0-5.9c0.5-0.8,5.5,0.8,5.9,0c1.2-3-1.7-9,0-11.8
	c1.6-2.5,9.1-4.5,11.8-5.9c-1.9,0.3-3.9-0.2-5.9,0c2-2.3,3.9-4.7,5.9-7c-0.3,0-0.6,0-0.9,0c-0.4,0.7-1.7,0.9-5,0
	c1.6-0.3,3.3-0.1,5,0c0.8-1.3-1.2-4.5,0.9-5.9c4.1-2.7,6.2-0.3,10.9-4.9c3-3,4.5-8.1,6.3-11.8c1-2,9.3-0.9,11.6-0.9
	c3.4,0,1.8-19.3,1.8-23.2s0-7.8,0-11.8c0-4.6-9.6,2.3-7-7.4c2.3,1.9,4.7,3.9,7,5.9c-9-11.2-30.6-31.4-30.6-46.7c0-4-5.9-4.9-5.9-8.9
	s0-8,0-12.1c0-7.1-4-5.3-5.9-11.1c-1.2-3.5,0-9.6,0-13.3c0-14.1,0.6-46.7,21.8-46.7c3.3,0,10.4-1.2,13.5,0c5.2,1.9,5.2,5.9,11.2,5.9
	c9.7,0,16.3,7.3,25.3,11.8c0-0.3,0-0.6,0-1c-0.6-0.9-0.7-2.4,0-4.9c0.3,1.5,0.1,3.3,0,4.9c2.4,3.6,12.9-2.5,12.9,2.8
	c0,8.5,11.8,4.1,11.8,15.5c0,10.4,32,21.8,40,24.3c5,1.6,10.1,13.7,9.5,13.7c2.7,0,10.5-1.6,10.5,1.5c0,7.9,2.7,1.3,6.8,5.3
	c2.8,2.8,5.5,5.4,8.5,7.9c6.5,5.5,3.2-1.1,9.4-2.9c8.6-2.6,16.3,2.3,23.5,5.9c-0.3-1.9,0.4-4,0-5.9c5.6,8.2,10.6,4.5,18.8,5.9
	c8.5,1.5,16.6,4.8,22.6,10.8c2.3,2.3,8.4,0.9,11.5,0.9c2.8,0,5.7,3.1,7.9,4.6c3.3,2.3,16,14.3,19.6,14.3c7.6,0,12.8,5.9,20.5,5.9
	c3.8,0-0.4,5,2.5,6.3c4.2,1.9,8.4,4.2,12.7,5.7c11.4,3.8,41.6,7.5,41.6,22.6c0-1.1,14.9,10.9,17,13c2,1.9,5.4-0.5,7.4,1.6
	c1.7,1.6,3.3,3.3,5,5c0.9,0.9-1,5.1,0,5.9c2,1.6,6-0.8,8.5,1.2c3.9,3.1,7.8,6.2,11.6,9.3c3.3,2.7,6.7,5.3,10,8
	c4.3,3.4-3.6,6.2,4.7,6.2c0.7,0,5.4,15.1,7.4,17.7c1.9,2.4,4.6,5.9,7.7,5.9c7.9,0,3,5.9,6.8,5.9c6,0,6.4,12.8,4.3,18.8
	c-2.7,7.8-11.2,10,0,17.7c-8.2-2.3-8.2,8.2,0,5.9c-5,11.1-5.9,17.3-5.9,29.4c0,5.4-1.5,7.1,4.3,7.1c5.1,0,9.4,1.2,7.4-5.9
	c4.5,6.8,5.9,5.8,10.8,0.9c2.4-2.4,11.1-0.9,14.5-0.9c16.6,0,17.5,7.4,22.1,22.3c2.7,8.8,0.7,20.9,0.7,30.2
	c0,13.1,12.5,13.3,23.5,13.3c-3.8,4.5-7.4,5.6-2.9,10c2.6,2.6,9.6,2.2,10.4,3.8c1.4,2.8,3.6,10.9,7,10.9c8.4,0,0.5,4,5.2,6.3
	c8.5,4.2,14.4,9.2,22.7,11.3c5.9,1.5,7.4,0.2,12.9,3.5c3.7,2.2,8.9,1.8,11.8,3.5C756.1,450.8,753.9,459.7,753.9,467.8z"/>
</svg>
