<?xml version="1.0" encoding="utf-8"?>
<!-- Generator: Adobe Illustrator 24.1.0, SVG Export Plug-In . SVG Version: 6.00 Build 0)  -->
<svg version="1.1" id="Layer_1" xmlns="http://www.w3.org/2000/svg" xmlns:xlink="http://www.w3.org/1999/xlink" x="0px" y="0px"
	 viewBox="0 0 820 820" style="enable-background:new 0 0 820 820;" xml:space="preserve">
<style type="text/css">
	.st0{fill:#FFFFFF;}
</style>
<g>
	<path class="st0" d="M735,700.5c4.3-0.7,8.9,0.7,13.2,0c-0.9-3.1-0.8-6,0.2-8.7c-0.1-1.5-0.2-3.1-0.2-4.5
		C743.6,690.8,738.4,696,735,700.5z"/>
	<path class="st0" d="M357.9,568.3c-2.3-2.3-1.4-31.2-15.2-17.8c-0.9,0.8-1.3,27.2,0,29c1.5,2.2,10.8-1.7,13.2,0
		c4.3,3.2,10.1,8.7,13.2,13.2c0-1.6,0.1-3.2,0.2-4.8c-1-2.1-1.2-4.8-0.2-8.4c0.8,0,1.6,0,2.4-0.1
		C366.4,577.6,362.8,573.2,357.9,568.3z"/>
	<path class="st0" d="M-10.3-15.9v851.7h840.6V-15.9H-10.3z M799.6,661.6c-12.8,6.4-45.8,14.6-51.3,30.3c0.2,2.9,0.3,5.9-0.2,8.7
		c-20,31.2-25.2-9.5-35.5-19.8c-10.5-10.4-18.5-0.6-31,5.6c-7.5,3.7-24,1-32.2,1c-13.5,0-13.1,7.6-19,19.5c-5.5,11-17.5,6.8-29,6.8
		c-11.3,0-16.6-13.8-16.6-22.9c0-7.8-19.6-13.2-26.3-16.6c1.6-0.4,3.1-0.6,4.6-0.7c-6.3-2.2-12.5-4.8-17.8-12.5
		c-3.7,4.8-9.8,8.1-13.2,13.2c0-9.6,0-19.3,0-29c-14.1-11.8-31-11-41.6-25.6c-20.1,5.1-40,25.6-15,25.6c-13.7,0-27.3,0-40.9,0
		c-2.3,2-6.4,2-13.1,0c4.4,0,8.7,0,13.1,0c2-1.7,2.7-4.9,2.7-9.8c0-7-20.5-3.4-26.8-3.4c-3.3,0-2.7-28.8-2.3-44.2
		c-0.1-2.8-0.3-5.7,0.2-8.4c0,1.5-0.1,4.5-0.2,8.4c0.1,1.6,0.2,3.2,0.2,4.7c11.3-17.6,15.9-10.8,29,0c3.4-12.7-3.6-16.8-15.8-13.2
		c11-9.2,19.8-18,29-29c-15.2,2.6-28.9-7.2-42.1-13.2c3,13.2-5.4,19.6-13.2,29c-9.6-11.5-11.4-33.2-26.3-29
		c15.4,10.2,7.6,29,22.9,29c6.3,0,3.4,32.3,3.4,39.5c-8.8-8.8-17.5-17.6-26.3-26.3c0.4,2.7,0.3,5.5,0.2,8.4
		c3.4,7.1,16.1,7.9,24.1,15.9c6.4,6.4,4.4,27.6-4.3,30.3c-32,9.8-67.3,27-100.9,27c-33.3,0-69.1,6.5-69.1-38.7
		c0-4.7,1.7-12.4,0-16.6c-3.9-9.4-13.2,9.7-13.2-9.3c0-20.2-8.4-25-21.5-39.4c-22.5-24.8-44.3-46-44.3-82.2c0-8.6-9,0.5-13.2-3.4
		c-9.7-9.3,10-13.1-11.7-13.1c-10.8,0,2.3-15.8-7.5-15.8c-17.7,0-2.5-3.3-9.7-13.1c-3.4-4.6,4.9-13.2-3.4-13.2
		c-11.6,0-9.7,0-9.7-11.4c0-18.6,0-37.2,0-55.7c0-16.6-11.6-17.3-26.3-27.7c-13.5-9.5-28.1-17.6-42.1-26.3
		c36-11.2,64.7-13.2,102.3-13.2c16.5,0,33,0,49.5,0c14.1,0,57.9,10.2,50.9-13.2c5.3,4.4,10.5,8.8,15.8,13.2c0-5.5-2.7-27.2,1.4-29.9
		c12.3-8.2,24.5-16.4,36.8-24.5c20.3-13.6,13.8-39,24.3-59.9c5.4-10.9,13.7-4,22.1-12.4c9.6-9.6,17.5-13.9,29.7-20
		c11.6-5.8,20,1.9,20-13.2c0-9.2,18.9,3.6,13.2-16.6c14.4,21.1,55.3,16.8,55.3,51.2c0,10.2,11.4-0.8,13.2,4.1c1.6,4.4,0,11.7,0,16.6
		c0,10.8,6.6,21.1,16.8,23.2c2.4-1.2,5.5-1.5,9.5-0.3c-3.4,0.9-6.6,0.9-9.5,0.3c-7.3,3.7-7.5,16.6-3.7,26c1.7,4.3,13.2-5.4,13.2,3.4
		c0,4.8-2.2,19.1,0,22.9c1.8,3,11.8-3,14.1,2.2c3.9,8.7,7.1,18.7,12.2,26.8c11.1,17.7,13.2,15.9,13.2,39.5c17-14.1,13.3-13.3,29,0
		c7.6,6.4,26.3,20.3,26.3,30.4c0,20,4.7,24.9-17.1,24.9c-24.8,0,1.1,18.3,3.9,26.3c3.2,9.4,0,26,0,36.1c0-3.4,23.1,16.1,26.3,19.2
		c4.1,4,13.2-5.2,13.2,3.4c0,6.5,0,13,0,19.5c0,23.7,20.1,10.8,29,3.4c-3.4,13.4,8.2,31.3,19.7,19.8c10.9-10.9,4.7-22.6,19.8-33
		c-25.6,0-26.3,1.2-26.3-24.8c0-7.4,10.2-4.1,16.6-4.1c12.8,0,14.7,5.9,22.9,15.8c9.2-11.1,32.3-29.6,26.3,0
		c-1.4,6.8-13.2,8.4-13.2,16.6c0,7.6,0,15.3,0,22.9c-3.7-4.9-9.4-8.3-13.2-13.2c0,18-2,27.3,13.2,39.5c12.9,10.3,29,15.4,42.1,26.4
		c-18.2,18.2-20.8,24.4-1.3,42.1c10,9.1,32.5,39.5,44.2,39.5c16.3,0,4.3,13.2,13.2,13.2C798.8,645.3,809.8,656.5,799.6,661.6z"/>
	<path class="st0" d="M496.6,618.7c2.3-0.1,4.6-0.1,6.7,0.3C501.2,618.5,498.9,618.5,496.6,618.7z"/>
</g>
</svg>
