<?xml version="1.0" encoding="utf-8"?>
<!-- Generator: Adobe Illustrator 24.1.0, SVG Export Plug-In . SVG Version: 6.00 Build 0)  -->
<svg version="1.1" id="Layer_1" xmlns="http://www.w3.org/2000/svg" xmlns:xlink="http://www.w3.org/1999/xlink" x="0px" y="0px"
	 viewBox="0 0 820 820" style="enable-background:new 0 0 820 820;" xml:space="preserve">
<style type="text/css">
	.st0{fill:#FFFFFF;stroke:#FFFFFF;stroke-miterlimit:10;}
</style>
<path class="st0" d="M-10-17.2v855.1h855.1V-17.2H-10z M796.8,655.9c-2.1,4.2-10.5,7-14,9.8c-3.5,2.8-9.8,3.5-12.6,7.7
	c-2.8,4.2-4.2,7-8.4,9.1c-4.2,2.1-7.7,5.6-9.1,9.8c-1.4,4.2-4.9,3.5-7,0.7c-2.1-2.8-4.2-2.1-5.6,0.7c-1.4,2.8,3.5,5.6,5.6,7
	c2.1,1.4-2.8,4.2-7.7,6.3c-4.9,2.1-11.2,2.1-15.4-2.1c-4.2-4.2,2.1-12.6,2.8-16.8c0.7-4.2,0-12.6-4.9-15.4s0,0-3.5,4.2
	c-3.5,4.2-4.2-1.4-11.2,0c-7,1.4-7.7,0-16.1,3.5c-8.4,3.5-11.2,2.1-15.4,2.8c-4.2,0.7-4.2,0.7-7,2.8c-2.8,2.1-6.3,1.4-11.9,2.1
	c-5.6,0.7-12.6,5.6-12.6,5.6s-1.4,4.9-2.8,8.4c-1.4,3.5-6.3,4.9-11.9,8.4s-11.9,3.5-17.5,4.2c-5.6,0.7-8.4-2.1-16.8-4.2
	c-8.4-2.1-8.4-14-10.5-21c-2.1-7-4.2-3.5-7-4.2c-2.8-0.7-11.9-5.6-16.1-7.7c-4.2-2.1,2.1-3.5-0.7-4.9c-2.8-1.4-9.1-4.2-16.1-9.1
	c-7-4.9,0,0-4.2,2.1c-4.2,2.1-4.2-1.4-10.5-5.6c-6.3-4.2-3.5-5.6-6.3-9.8c-2.8-4.2-2.1-7.7-2.8-11.2c-0.7-3.5-6.3-4.2-10.5-8.4
	c-4.2-4.2-2.1,6.3-4.9,6.3s-1.4-6.3-5.6-13.3s-3.5-4.9-2.1-11.2c1.4-6.3-5.6-3.5-9.8-4.2c-4.2-0.7,0.7,9.1,0.7,9.1
	s-16.1,12.6-18.2,14c-2.1,1.4-4.9,7.7-4.9,7.7h14.7l1.4,8.4l-49.6,1.4l-3.5-7l24.5-2.1l-1.4-2.8c0,0-11.2-2.1-18.2-3.5
	c-7-1.4-9.8,0-15.4,0s-2.1-1.4-6.3-9.8c-4.2-8.4-1.4-12.6-6.3-20.3c-4.9-7.7,0-7.7,0-14c0-6.3,2.8-3.5,7-4.2
	c4.2-0.7,8.4-2.8,8.4-2.8s2.1,2.1,4.9-0.7c2.8-2.8,4.9,2.8,7,5.6c2.1,2.8,3.5-8.4,4.9-11.2c1.4-2.8-2.8,2.1-7,2.1
	c-4.2,0,0,0,0.7-2.8s4.9-4.2,6.3-8.4c1.4-4.2,6.3-7,9.1-10.5c2.8-3.5-1.4-4.2-6.3-6.3c-4.9-2.1-5.6-4.2-11.9-5.6
	c-6.3-1.4-9.1-4.9-15.4-6.3c-6.3-1.4-5.6,0-7.7,4.9c-2.1,4.9,2.1,9.8,2.8,14.7c0.7,4.9-4.2,2.8-8.4,0.7c-4.2-2.1-3.5-2.8-6.3-8.4
	s0,0-4.2-2.8c-4.2-2.8-0.7-2.8-1.4-7c-0.7-4.2-6.3-4.2-10.5-3.5c-4.2,0.7,0,9.8,1.4,12.6c1.4,2.8,7.7,15.4,9.8,18.9
	s2.1,9.8,4.9,16.1c2.8,6.3-4.9,0-7.7-2.8c-2.8-2.8-4.9,0.7-6.3-2.8c-1.4-3.5,0,0-2.8-2.8c-2.8-2.8-3.5-3.5-7.7-6.3
	c-4.2-2.8-3.5-6.3-7.7-9.1c-4.2-2.8-6.3-4.9-10.5-4.9c-4.2,0-6.3-0.7-9.1,1.4s4.9,7.7,8.4,11.2s-4.9-2.1-11.2-2.1
	c-6.3,0-0.7,7,3.5,11.2c4.2,4.2,27.3,5.6,32.2,7c4.9,1.4,11.9,6.3,14,7s7.7,6.3,9.8,13.3c2.1,7,3.5,11.2,3.5,17.5
	c0,6.3-16.1,15.4-23.1,16.1c-7,0.7-18.2-0.7-23.8,0c-5.6,0.7-10.5,4.2-16.8,6.3c-6.3,2.1-16.8,4.2-23.8,5.6
	c-7,1.4-11.2,2.1-15.4,4.2c-4.2,2.1-25.2,1.4-29.4,1.4c-4.2,0-11.2,3.5-13.3,4.2c-2.1,0.7-12.6,0.7-18.9-2.8
	c-6.3-3.5-12.6-10.5-16.1-18.2c-3.5-7.7-0.7-7,0-10.5c0.7-3.5,4.2-4.2,4.9-7.7c0.7-3.5-4.2-4.9-6.3-4.2c-2.1,0.7-2.1,3.5-5.6,2.1
	c-3.5-1.4-1.4-9.1-4.9-15.4c-3.5-6.3-2.8-8.4-4.9-14.7c-2.1-6.3-2.8-16.1-5.6-20.3c-2.8-4.2-6.3-11.9-10.5-17.5
	c-4.2-5.6-19.6-19.6-22.4-22.4c-2.8-2.8-6.3,0-10.5-2.1c-4.2-2.1-7.7-6.3-8.4-9.8c-0.7-3.5-4.2-18.2-4.2-24.5s-2.1-7-2.8-9.8
	s-4.2-5.6-5.6-11.2c-1.4-5.6-4.9-8.4-4.9-8.4s-8.4-11.2-11.9-14c-3.5-2.8-17.5-13.3-20.3-16.8c-2.8-3.5-4.2-7.7-7.7-11.9
	c-3.5-4.2-7-3.5-8.4-6.3c-1.4-2.8,0-67.1-1.4-71.3c-1.4-4.2-9.8-13.3-13.3-16.1c-3.5-2.8-39.1-30.8-41.2-32.2
	c-2.1-1.4-6.3-6.3-6.3-6.3s11.9-0.7,17.5-2.1c5.6-1.4,11.9-2.8,18.9-4.9c7-2.1,25.9,0.7,32.2,0.7c6.3,0,16.1-0.7,21-3.5
	s15.4-4.2,21-4.9c5.6-0.7,16.1,6.3,23.1,7c7,0.7,10.5,2.1,16.8,2.1c6.3,0,21-4.9,23.8-6.3c2.8-1.4,4.2-2.1,8.4-0.7
	c4.2,1.4,4.2,1.4,7.7,0c3.5-1.4,5.6,2.8,7.7,6.3c2.1,3.5,1.4-6.3,3.5-10.5c2.1-4.2,3.5-2.8,7.7-4.9c4.2-2.1,5.6-7,5.6-10.5
	c0-3.5,1.4-3.5,1.4-7s7-4.2,13.3-9.8c6.3-5.6,11.2-9.8,18.2-16.1c7-6.3,9.1-9.1,11.9-14s9.1-4.2,9.1-4.2s-1.4-4.9-2.8-7.7
	c-1.4-2.8,2.1-7.7,4.2-12.6c2.1-4.9,16.8-18.2,19.6-21.7c2.8-3.5,14.7-15.4,16.1-17.5c1.4-2.1,7.7-8.4,10.5-11.2s4.9-2.8,9.8-6.3
	c4.9-3.5,11.2-2.8,16.1-4.2c4.9-1.4,4.9-5.6,9.1-9.8c4.2-4.2,8.4-4.9,12.6-6.3c4.2-1.4,16.8,2.1,22.4,2.8c5.6,0.7,3.5,2.8,7,6.3
	c3.5,3.5,14.7,13.3,18.2,17.5c3.5,4.2,13.3,14.7,14,19.6c0.7,4.9-0.7,14-0.7,14s7,5.6,9.1,5.6c2.1,0,1.4,4.9,0.7,7.7
	c-0.7,2.8,0.7,6.3,4.2,7.7c3.5,1.4,9.1,9.1,9.1,11.2c0,2.1-4.2,17.5-2.1,19.6c2.1,2.1,8.4,15.4,9.8,18.2c1.4,2.8,13.3,7,16.8,10.5
	c3.5,3.5,2.8,8.4,3.5,11.9c0.7,3.5,4.2,2.8,6.3,7c2.1,4.2,4.9,11.2,9.1,15.4c4.2,4.2,10.5,11.2,10.5,11.2s-1.4,14.7,2.1,15.4
	c3.5,0.7,8.4,0,11.9-0.7c3.5-0.7,8.4,4.2,12.6,4.2c4.2,0,6.3,9.1,9.8,14c3.5,4.9,10.5,14,11.9,18.9c1.4,4.9,5.6,10.5,6.3,15.4
	c0.7,4.9-5.6,5.6-7.7,5.6c-2.1,0-10.5,2.8-15.4,5.6c-4.9,2.8-3.5,5.6-3.5,9.1c0,3.5,3.5,8.4,4.2,12.6c0.7,4.2-2.1,11.2,2.1,16.1
	c4.2,4.9,2.8,11.9,2.8,16.1c0,4.2,13.3,15.4,18.2,20.3c4.9,4.9,7.7,1.4,12.6-1.4s4.2,2.8,7,6.3c2.8,3.5,4.2,12.6,5.6,15.4
	c1.4,2.8,14.7,3.5,18.2,7c3.5,3.5,2.8,7,5.6,11.2c2.8,4.2-0.7,7,0,10.5c0.7,3.5,4.9,7,7,4.9s5.6,0,8.4,2.8s6.3,0,13.3-2.8
	c7-2.8,3.5-22.4,2.1-26.6c-1.4-4.2-9.1-9.1-14-13.3c-4.9-4.2,0.7-3.5,4.2-5.6c3.5-2.1,7-9.8,9.1-13.3c2.1-3.5,2.8-2.1,6.3,0.7
	c3.5,2.8,8.4,4.9,15.4,7c7,2.1,11.9-2.8,17.5-4.9c5.6-2.1,12.6-2.8,14.7-2.8c2.1,0-0.7,7.7-0.7,10.5s-4.2,3.5-9.8,4.9
	c-5.6,1.4-6.3,6.3-7.7,11.9c-1.4,5.6,1.4,9.1,1.4,14.7c0,5.6-2.1,3.5-6.3,4.9c-4.2,1.4-4.2,1.4-6.3,5.6c-2.1,4.2,3.5,7.7,7.7,15.4
	c4.2,7.7,4.9,4.9,11.9,7c7,2.1,9.8,6.3,14.7,9.8c4.9,3.5,14.7,25.9,14.7,25.9s-4.2,7.7-4.9,18.9c-0.7,11.2,8.4,20.3,16.1,32.2
	c7.7,11.9,39.1,30.8,42.6,31.5c3.5,0.7,11.2-4.2,11.2-4.2s6.3,7.7,7,13.3C800.3,648.9,798.9,651.7,796.8,655.9z"/>
</svg>
