<?xml version="1.0" encoding="utf-8"?>
<!-- Generator: Adobe Illustrator 24.1.0, SVG Export Plug-In . SVG Version: 6.00 Build 0)  -->
<svg version="1.1" id="Layer_1" xmlns="http://www.w3.org/2000/svg" xmlns:xlink="http://www.w3.org/1999/xlink" x="0px" y="0px"
	 viewBox="0 0 820 820" style="enable-background:new 0 0 820 820;" xml:space="preserve">
<style type="text/css">
	.st0{fill:#FFFFFF;}
</style>
<g>
	<path class="st0" d="M659.5,150.9c-0.5-0.2-1-0.3-1.6-0.4c-3.2,0-6.5,0-9.7,0C651.7,151.5,655.4,151.7,659.5,150.9z"/>
	<path class="st0" d="M-9-13.4v844.2h844.2V-13.4H-9z M801.3,344.9c-29-8.2-11.1,19.3-17,34.1c-3.1,7.8-14.6,11.8-18.3,19.9
		c-5.1,11.1-9.1,24.5-15.8,34.7c-16.5,25.1-17.1,26.6-17.1,60.2c0,14.6,5.3,35.6-4.2,41.8c5.5,3.4,4.2,12.7,4.2,24.3
		c0,6.1,4.6,42.4,0,47.6c-15.6,17.6-22.8-17-24.9-17c-22.8,0-3,24.6-29.7,17c3.8,5.8,11.5,12.8,17,17.1c4.8-6.3,12.7-10.5,17-17.1
		c0,9.9,0,19.8,0,29.7c0,4.4-18.9,6.3-25.6,13c-6.7,6.6-25.6,8.6-25.6,13c0,21.7-17,4.7-17,17.9c0,28.1-5,2.5-17,15.1
		c-2,2.1,2.3,16.2,0,17.1c-4.5,1.8-13.1-2.6-17,0c-4.7,3.2-15-2.2-20.5,0c-2.3,0.9,2.1,15,0,17c-3,2.8-14.2-2.8-17.1,0
		c-1.9,1.9,1.9,16.5,0,17.1c-22.6,6.5-41.4-17.1-63.8-17.1c-11.4,0-22.7,0-34.1,0c-10.9,0,3.4-17-19.6-17c-12.3,0-15,17-26.8,17
		c-14.4,0-28.8,0-43.2,0c-10.9,0-13.8-17-25.1-17c-15.9,0-20.8-6.8-33.1-17.1c0,0.8,0,1.6-0.1,2.5c2.1,3.5,1.3,10.1,0.1,14.6
		c-0.8-4.6-0.3-9.8-0.1-14.6c-0.9-1.5-2.3-2.5-4.4-2.5c-19.9,0-7.2,16.3-12.6,17.1c-15.2,2.3-17,1.4-17-12.6
		c0-9.9-13.8-0.6-19.7-7.7c-12.6-15.1-26-28.9-39.9-42.8c-7.8-7.8-4-21.1-8.5-25.6c-3.6-3.5-20-2.5-27.3-8.5
		c-30.7-25.6-78.4-25.5-114.3-42.6c-23.4-11.1-33.8-12.7-44.3-35.8c-7.9-17.3-30.5-33.4-25.6-52.9c0-15.8-7-57.9,0-71.7
		c8.9-17.6,50.8-36.3,67-47.9c12.2-8.7,21.6-44,21.6-58.9c0-28.2,26.5-37.8,48.6-48.9c17.2-8.6,46.2-7.4,59.8-20.9
		c10.6-10.7,12.2-14.4,27-14.4c9.8,0,16.1-23.3,20.2-31.6c6.5-13,45.6-15.9,59.9-23.7c21.1-11.5,50.7-13.8,64.2-33.5
		c13.1,8.7,21.3,21.5,17,37.5c5.7-6.8,11.4-13.6,17-20.4c8.3,9.9,16.4,19.8,25.6,29c10.4,10.5,29,2.2,29-13.8
		c0-32.9,31.9-43.3,51.1-15.1c26.9-38,73.8,31.6,105.7-17.1c5.2,7.6,11.6,14,19.5,16.7c4.1-0.6,7.7-0.4,11.1,0.4c1.2,0,2.3,0,3.5,0
		c-0.7,0.2-1.3,0.3-1.9,0.4c6.4,1.9,12.1,5.7,19,9.8c10.6,6.4,29.9,6.7,37.3,12.9c6.1,5.1,23.5,31.4,21.7,31.4
		c11.8,0,29.7,6.9,29.7,21.4c0,16.6-6.5,29.7,12.6,29.7c7.5,0,4.4,5.8,4.4,12.6c0,11.5,14.8-1.1,17,4.5
		C815.1,307.7,768.6,323.4,801.3,344.9z"/>
</g>
</svg>
