<?xml version="1.0" encoding="utf-8"?>
<!-- Generator: Adobe Illustrator 24.1.0, SVG Export Plug-In . SVG Version: 6.00 Build 0)  -->
<svg version="1.1" id="Layer_1" xmlns="http://www.w3.org/2000/svg" xmlns:xlink="http://www.w3.org/1999/xlink" x="0px" y="0px"
	 viewBox="0 0 820 820" style="enable-background:new 0 0 820 820;" xml:space="preserve">
<style type="text/css">
	.st0{fill:#FFFFFF;}
</style>
<g>
	<path class="st0" d="M-29.5-29.5v878.9h878.9V-29.5H-29.5z M290.7,513.2c-1.6-2.5-4.7-3.9-6.4-6.4c-3.9,3.9-7.9,7.9-11.8,11.8
		c-3,2.9-7.6-0.1-8,3.4c0.7,1.1,1,2.4,0.6,4c-0.5-1.8-0.7-3.1-0.6-4c-4.1-5.9-22.2-4.5-19.8,4c-2.1-2.1-4.6-4.1-6.4-6.4
		c0.3,2,0,4.3,0,6.4c-6.6-9.2-10.5-4.3-19.2,0c2.2-8.5-6.4-8.7-8.4-15.3c-2.6-8.4-5-15.6-5.6-24.2c-0.8-12.5,0.5-33-13.7-40.1
		c-7.9-3.9-15.8-7.9-23.6-11.8c-2.8-1.4-0.9-18.1-0.9-21.2c0-16.9,31.1-12.4,41.9-12.4c7.8,0,15.7,0,23.5,0c7.9,0,13,7.7,19.9,7.7
		c9.1,0,14.3-1.2,19.8,7c4.4,6.6,8.4,16.5,15.7,20.1c10.6,5.3,9.2,8.3,15.8,17.5c4.8,6.7,14,9.8,14,18.5
		C317.5,487.3,301.8,502.5,290.7,513.2z M369.9,264.3c-0.9,2.5-5.1,4-6.4,6.4c-1.4,2.4,1.3,5.3-1.2,7.4c-5.5,4.6-12.8,4-12.8,10.1
		c0,5.6-12.8,4.1-12.8,9.7c0,9.3-6.5,2.2-12.8,4.7c-2.1,0.9,2.6,6.4-1.7,6.4c-3.5,0-6.9,0-10.4,0c-3.8,0-14.7,5.6-14.7,9.3
		c0,5.2,0.4,4.7-4.7,4.7c-4.3,0,0.4-5.5-1.7-6.4c-2.8-1.1-8.4,0-11.4,0c-3.6,0,0.5,5.6-1.3,6.4c-5.8,2.4-14.9,1.1-12.8-6.4
		c-2.6,2.1-5.1,4.2-7.7,6.4c3.1-11.1-15.8-6.4-22.9-6.4c-8.7,0-14.8-7.7-24.7-7.7c-6.8,0-5.6-3.5-11.1-6.4c-4.8-2.6-11-3.7-16.1-5.4
		c-4.1-1.4-5.7-5.9-9.4-7.4c-3.5-1.4-10.2,0-14,0c-9.1,0-18.3,0-27.4,0c-9.3,0-17.5,6.4-26.5,6.4c-15.1,0-47.9-7.5-57.1,6.4
		c0-1.5-0.2-3.1-0.1-4.6c-4.5-8.1-36.9,6.5-33-8.2c7-5.8,5.1-5.7,7.7-12.8c2.2-6-0.3-8.2,6.4-12.8c-0.7,0-1.4,0-2.1-0.1
		c-1.4,0.4-2.8,0.5-4.3,0.1c1.4-0.2,2.9-0.2,4.3-0.1c8.5-2.6,15.8-19.1,20-25c2.2-3.1,2.3-10.9,1.2-14.5c-2.9-9.6-8.9-3.3,0-14
		c9.2,11.1,17.1,9.8,26.8,0c2.3,2.8,9.7,14,13.6,14c6.9,0,21.1-4.2,18.3,6.4c11.2-5.1,12.7-7.1,23.5-1.7c7.1,3.6,17.8,4.4,25.8,7
		c7.7,2.6,13.9-6.2,22.6-4c3.1,0.8,24.6,8.6,26.9,4c3.5-7,4.7-21.2,13.6-18.2c8.2,2.8,10.3,18.1,12.5,24.7c1.3,4,19.4-2.7,19.4,2.5
		c0,7.7,16.6,7.9,14-1.6c5.2,7.7,24.5,10.1,32.9,5.9c12.8-6.4,22.8-5.9,37-5.9c6.7,0,13.3,0,20,0c2.4,0-0.4,5.9,0.8,6.4
		c2.7,1,7.6,0,10.4,0C371.3,250.3,371.6,259.5,369.9,264.3z M808.9,526c-1.5,5.5,2.3,6.4-4.7,6.4c-1.3,0-2.7,7.3-5.5,9.6
		c-6.6,5.5-6.1,17.2-14.9,17.2c-3.3,0-5.8,4.1-8,6.4c-1.1,1.1,0.9,5,0,6.4c-0.7,1-5.5-0.9-6.4,0c-4.1,4.2,4.4,6.4-4.5,6.4
		c-4.7,0-9.3,0-14,0c-4.3,0-4.7,5.2-8.3,6.4c-4,1.3-10.6-2.2-13.8,1c-4,4-4.6,5.4-10.1,5.4c-4.3,0,1.5,6.4-6.4,6.4
		c-4.5,0,1.2-6.4-3.3-6.4c-5.9,0-7.8,2.5-12.4,6.4c0-0.3,0-0.6,0-0.9c-0.1,0.1-0.2,0.2-0.3,0.4c0,0,0,0-0.1,0.1
		c-0.1,0.1-0.2,0.2-0.3,0.2c0,0-0.1,0-0.1,0.1c-0.1,0.1-0.2,0.1-0.3,0.1c0,0-0.1,0-0.1,0c-0.2,0-0.3,0.1-0.5,0.1
		c-9.2,0-0.4-4.6-4.7-6.4c-3.4-1.4-18.1-1-20.1,1c-6,6-10.9,4.5-16.7,10.4c-3.9,3.9-11.5,9.1-17.1,9.1c-7,0-10.3,5.3-17.5,6.4
		c-8.1,1.3-17.5,0-25.7,0c-11.2,0-3.6,6.4-12,6.4c-8.8,0-15.5,1.7-21-6.4c0.4,2.1-0.3,4.3,0,6.4c-9.5-7.9-12.6-12.8-25.1-12.8
		c-3.4,0-1.2-11.1-1.6-14c-1.1-6.2-0.3-8.6-6.4-12.8c16.1-11,0-44.3,0-60.4c0-8.2-1.7-26.9-7.4-32.5c-0.4-0.4-0.9-0.8-1.3-1.2
		c-0.1,0-0.1-0.1-0.2-0.1c-0.4-0.3-0.9-0.7-1.3-1c-0.1-0.1-0.2-0.1-0.2-0.2c-0.4-0.3-0.9-0.6-1.4-0.8c-0.1,0-0.2-0.1-0.2-0.1
		c-0.5-0.2-1-0.5-1.4-0.7c0,0-0.1,0-0.1,0c-0.5-0.2-1-0.4-1.5-0.5c-0.1,0-0.1,0-0.2-0.1c-0.5-0.2-1-0.3-1.5-0.4
		c-0.1,0-0.2,0-0.3-0.1c-0.5-0.1-1-0.2-1.5-0.3c-0.1,0-0.2,0-0.3,0c-0.5-0.1-1-0.1-1.5-0.2c-0.1,0-0.2,0-0.3,0c-0.5,0-1-0.1-1.6-0.1
		c0,0-0.1,0-0.1,0c-0.5,0-1.1,0-1.6-0.1c-0.1,0-0.2,0-0.3,0c-0.5,0-1,0-1.6,0c-0.1,0-0.3,0-0.4,0c-0.5,0-1,0-1.5,0
		c-0.2,0-0.3,0-0.5,0c-0.4,0-0.9,0-1.3,0.1c-0.3,0-0.6,0-0.9,0c-0.2,0-0.4,0-0.6,0c-1.5,0.1-3,0.2-4.5,0.2c0,0,0,0,0,0
		c0.1,0,0.1,0,0.2,0c0.3,0,0.5,0,0.8,0c0.1,0,0.2,0,0.3,0c0.4,0,0.8,0,1.1,0c-5.4,6.1-11,8.7-18.2,12.3c-4,2-10.1-12.3-14.7-12.3
		c-11.4,0-12.7,0.3-20.7-7.8c-3.5-3.5-17.8-6.6-17.8-6.7c0-9.9-10.3-4.7-14.3-11.6c-4.6-8-9.3-16.1-13.9-24.1c-4.6-7.9-5-10.7-5-20
		c0-3.9-6.4,1.4-6.4-3c0-4.1,0-8.3,0-12.4c0-18.3,12.8-33.1,12.8-50.7c0-5.1,20.4,1.8,20.4-3.3c0-1.6-0.9-10.2,0-11.1
		c4.6-4.6,7.3,2.9,6.4,6.4c4.7-7,8.1-7,12.8,0c-2.5-8.7,5.2-6.4,11.1-6.4c4.3,0-0.5,4.9,1.7,6.4c2.1,1.4,5.3-0.9,7.6,1
		c3.2,2.7,10.6,11.8,14.5,11.8c5.6,0,4.7,0,4.7,5.7c0,4.9,5.5-0.4,6.4,2c3.2,8.9-2,10.8,5.4,18.1c2.1,2.1,4.3,4.2,6.4,6.4
		c2.1,2.1-0.4,5.4,1,7.4c1.1,1.5,6.4-1.9,6.4,1c0,4,0,8,0,11.9c0,6,9.9,5.2,7.7,13.8c1.8-2.4,4.6-4,6.4-6.4
		c7.6,3.8,10.6,7.8,17.7,3.1c8.9-5.9,13-13.1,20.6-3.1c-3.4-11.4,8.5-3.7,14-6.4c2.6-1.3,4-5.8,6.4-7.7c3.2-2.6,8.1-4.1,11.8-5.9
		c6.3-3.1,13.7,4.1,13.7-5.2c0-1,17.3-6.7,14,4.7c3.9-2,7.9-4,11.8-5.9c2.7-1.4,5.4,5.9,9,5.9c6.6,0,20.3-3.6,17.5,6.4
		c2.6-2.1,5.1-4.2,7.7-6.4c0,12.5-2,14,11.4,14c0.1,0,8.6,15.5,7.7,19.1c1.8-2.4,4.6-4,6.4-6.4c-1.9,7.5,4.4,12.8,11.1,12.8
		c4.6,0-1.4,6.4,3.6,6.4c0.4,0,0.7,0,1,0c0.1,0,0.1,0,0.2,0c0.3,0,0.5,0,0.8,0c0.1,0,0.1,0,0.2,0c0.3,0,0.5,0,0.8,0.1
		c0,0,0.1,0,0.1,0c0.8,0.1,1.5,0.2,2,0.6c0,0,0,0,0,0c0.2,0.1,0.3,0.2,0.4,0.3c0,0,0,0,0,0c0.1,0.1,0.2,0.3,0.3,0.5c0,0,0,0,0,0
		c0.2-0.4,0.5-0.7,0.7-1c0,0,0,0,0,0c0.3-0.3,0.6-0.5,0.9-0.6c0,0,0,0,0,0c0.3-0.1,0.6-0.2,1-0.2c0,0,0,0,0.1,0c0.2,0,0.3,0,0.5,0
		c0,0,0,0,0,0c0.2,0,0.3,0.1,0.5,0.1c0,0,0.1,0,0.1,0c0.1,0,0.3,0.1,0.4,0.2c0,0,0,0,0.1,0c0.1,0.1,0.3,0.2,0.4,0.3
		c0,0,0.1,0.1,0.1,0.1c0.1,0.1,0.2,0.2,0.3,0.3c0,0,0.1,0.1,0.1,0.1c0.1,0.1,0.2,0.3,0.3,0.5c0,0,0,0.1,0.1,0.1
		c0.1,0.2,0.2,0.3,0.2,0.5c0,0.1,0,0.1,0.1,0.2c0.1,0.2,0.1,0.4,0.2,0.7c0,0,0,0.1,0,0.1c0,0.2,0.1,0.5,0.1,0.7c0,0.1,0,0.2,0,0.2
		c0,0.3,0,0.6,0,0.9c0,5.1,12.8-1.8,12.8,3.3c0,8.4-0.7,11.7,5.4,17.8c4.5,4.5,11.2-1.7,13.8-5.4c-2.6,9.2,3.5,4,7.6,7.4
		c4.5,3.8,8.8,7.5,12.8,11.8c1.8-2.3,4.8-3.9,6.4-6.4c-2.6,9.2,18.5,8.9,25.5,12.8c5.3,3,23.9,24.7,7.7,20.4
		C808.7,511.1,810.9,518.6,808.9,526z"/>
	<path class="st0" d="M520.5,421.3c-2.2-2-4-4.6-6.4-6.4C512.5,420.5,514.9,422.9,520.5,421.3z"/>
	<path class="st0" d="M48.2,298.3c0,1.4,0,2.9,0,4.3C48.7,300.8,48.7,299.4,48.2,298.3z"/>
</g>
</svg>
